<svg width="20" height="18" viewBox="0 0 20 18" fill="none" xmlns="http://www.w3.org/2000/svg">
<path fill-rule="evenodd" clip-rule="evenodd" d="M2.5 1C1.67157 1 1 1.67157 1 2.5V4H4V1H2.5ZM5 1V8.5H15V1H5ZM16 1V4H19V2.5C19 1.67157 18.3284 1 17.5 1H16ZM19 5H16V8.5H19V5ZM19 9.5H16V13H19V9.5ZM19 14H16V17H17.5C18.3284 17 19 16.3284 19 15.5V14ZM15 17V9.5H5V17H15ZM4 17V14H1V15.5C1 16.3284 1.67157 17 2.5 17H4ZM1 13H4V9.5H1V13ZM1 8.5H4V5H1V8.5ZM0 2.5C0 1.11929 1.11929 0 2.5 0H17.5C18.8807 0 20 1.11929 20 2.5V15.5C20 16.8807 18.8807 18 17.5 18H2.5C1.11929 18 0 16.8807 0 15.5V2.5Z" fill="#1390E5"/>
</svg>
